<?xml version="1.0" encoding="utf-8"?>
<!-- Generator: Adobe Illustrator 15.1.0, SVG Export Plug-In . SVG Version: 6.00 Build 0)  -->
<!DOCTYPE svg PUBLIC "-//W3C//DTD SVG 1.1//EN" "http://www.w3.org/Graphics/SVG/1.1/DTD/svg11.dtd">
<svg version="1.1" id="Camada_1" xmlns="http://www.w3.org/2000/svg" xmlns:xlink="http://www.w3.org/1999/xlink" x="0px" y="0px"
	 width="420.5px" height="447px" viewBox="0 0 420.5 447" enable-background="new 0 0 420.5 447" xml:space="preserve">
<path fill="#CDCED3" stroke="#000000" stroke-miterlimit="10" d="M410.176,246.79c0,8.001-6.32,14.487-14.117,14.487H28.687
	c-7.797,0-14.118-6.486-14.118-14.487V19.72c0-8.002,6.321-14.487,14.118-14.487h367.372c7.797,0,14.117,6.485,14.117,14.487V246.79
	z"/>
<path stroke="#000000" stroke-miterlimit="10" d="M393.853,236.151c0,6.16-5.213,11.155-11.646,11.155H49.281
	c-6.432,0-11.646-4.995-11.646-11.155V26.565c0-6.161,5.214-11.155,11.646-11.155h332.925c6.434,0,11.646,4.994,11.646,11.155
	V236.151z"/>
<polyline fill="#AEADB3" stroke="#000000" stroke-miterlimit="10" points="186.627,261.277 186.627,321.701 230.11,321.701 
	254.76,321.701 254.76,261.277 "/>
<polyline fill="#AEADB3" stroke="#000000" stroke-miterlimit="10" points="16.744,301.921 16.744,321.7 412.35,321.7 
	412.35,301.921 "/>
<path stroke="#000000" stroke-miterlimit="10" d="M344.917,390.529c0.045,0.021,0.09,0.036,0.134,0.058
	c1.335,0.654,2.383,2.362,2.7,3.764c0.121,0.535,0.59,3.766,0.258,1.57c0.195,1.29,0.047,2.57-0.464,3.646
	c0.038,0.063,0.067,0.116,0.083,0.148c0.033,0.07,0.06,0.136,0.092,0.205c0.025-0.063,0.053-0.123,0.078-0.186
	c0.199-0.553,0.412-1.098,0.641-1.635c0.613-1.607,1.184-3.229,1.678-4.875c0.023-0.193,0.076-0.379,0.111-0.568
	c0.035-0.346,0.094-0.697,0.207-1.068c1.828-5.932,3.467-11.877,5.727-17.664c1.994-5.102,3.881-10.184,4.842-15.576
	c0-0.184-0.014-0.361,0.004-0.557c0.887-9.895,8.162-17.908,8.75-28c0.084-1.439,0.654-2.555,1.484-3.35
	c0.119-0.447,0.295-0.875,0.525-1.271c1.279-7.813,1.922-12.643,1.922-12.643L344.917,390.529z"/>
<path fill="#5B5B5F" stroke="#000000" stroke-miterlimit="10" d="M370.882,311.791c0,0,3,5,4.666,0
	C375.382,311.959,374.214,306.791,370.882,311.791z"/>
<path fill="#5B5B5F" stroke="#000000" stroke-miterlimit="10" d="M392.214,359.959"/>
<path fill="#5B5B5F" stroke="#000000" stroke-miterlimit="10" d="M317.882,439.594"/>
<path fill="#5B5B5F" stroke="#000000" stroke-miterlimit="10" d="M349.548,427.573c0,6.627-5.373,12-12,12h-220.5
	c-6.627,0-12-5.373-12-12v-66.5c0-6.627,5.373-12,12-12h220.5c6.627,0,12,5.373,12,12V427.573z"/>
<polyline stroke="#000000" stroke-miterlimit="10" points="119.056,355.122 119.056,369.789 132.723,369.789 132.723,355.122 "/>
<polyline stroke="#000000" stroke-miterlimit="10" points="156.654,386.99 156.654,401.657 170.32,401.657 170.32,386.99 "/>
<polyline stroke="#000000" stroke-miterlimit="10" points="172.714,386.99 172.714,401.657 186.381,401.657 186.381,386.99 "/>
<polyline stroke="#000000" stroke-miterlimit="10" points="189.715,386.99 189.715,401.657 202.26,401.657 202.26,386.99 "/>
<polyline stroke="#000000" stroke-miterlimit="10" points="204.706,386.563 204.706,401.229 218.372,401.229 218.372,386.563 "/>
<polyline stroke="#000000" stroke-miterlimit="10" points="236.297,386.99 236.297,401.657 249.964,401.657 249.964,386.99 "/>
<polyline stroke="#000000" stroke-miterlimit="10" points="236.297,403.459 236.297,418.126 249.963,418.126 249.963,403.459 "/>
<polyline stroke="#000000" stroke-miterlimit="10" points="140.723,386.334 140.723,401.459 154.389,401.459 154.389,386.334 "/>
<polyline stroke="#000000" stroke-miterlimit="10" points="140.723,369.789 140.723,384.456 154.389,384.456 154.389,369.789 "/>
<polyline stroke="#000000" stroke-miterlimit="10" points="156.654,369.789 156.654,384.456 170.32,384.456 170.32,369.789 "/>
<polyline stroke="#000000" stroke-miterlimit="10" points="140.723,403.459 140.723,417.001 154.389,417.001 154.389,403.459 "/>
<polyline stroke="#000000" stroke-miterlimit="10" points="172.714,369.789 172.714,384.456 186.381,384.456 186.381,369.789 "/>
<polyline stroke="#000000" stroke-miterlimit="10" points="172.714,402.896 172.714,417.563 186.381,417.563 186.381,402.896 "/>
<polyline stroke="#000000" stroke-miterlimit="10" points="189.154,403.459 189.154,418.126 202.821,418.126 202.821,403.459 "/>
<polyline fill="#D8D9DD" stroke="#000000" stroke-miterlimit="10" points="147.556,425.377 147.556,434.877 225.206,434.877 
	225.206,425.377 "/>
<rect x="300.716" y="400.501" fill="#D8D9DD" stroke="#000000" stroke-miterlimit="10" width="15.143" height="16.584"/>
<rect x="315.858" y="417.085" fill="#D8D9DD" stroke="#000000" stroke-miterlimit="10" width="15.143" height="16.583"/>
<rect x="285.573" y="417.085" fill="#D8D9DD" stroke="#000000" stroke-miterlimit="10" width="15.143" height="16.583"/>
<rect x="300.716" y="417.085" fill="#D8D9DD" stroke="#000000" stroke-miterlimit="10" width="15.143" height="16.583"/>
<polyline stroke="#000000" stroke-miterlimit="10" points="220.464,386.563 220.464,401.229 234.131,401.229 234.131,386.563 "/>
<polyline stroke="#000000" stroke-miterlimit="10" points="220.464,404.021 220.464,417.564 234.131,417.564 234.131,404.021 "/>
<polyline stroke="#000000" stroke-miterlimit="10" points="204.706,403.459 204.706,418.126 218.372,418.126 218.372,403.459 "/>
<polyline stroke="#000000" stroke-miterlimit="10" points="188.593,369.789 188.593,384.456 202.26,384.456 202.26,369.789 "/>
<polyline stroke="#000000" stroke-miterlimit="10" points="204.706,369.789 204.706,384.456 218.373,384.456 218.373,369.789 "/>
<polyline stroke="#000000" stroke-miterlimit="10" points="204.706,369.789 204.706,384.456 218.373,384.456 218.373,369.789 "/>
<polyline stroke="#000000" stroke-miterlimit="10" points="236.297,369.789 236.297,384.456 249.963,384.456 249.963,369.789 "/>
<polyline stroke="#000000" stroke-miterlimit="10" points="290.464,366.122 290.464,373.455 297.296,373.455 297.296,366.122 "/>
<polyline stroke="#000000" stroke-miterlimit="10" points="301.454,366.122 301.454,373.455 308.286,373.455 308.286,366.122 "/>
<polyline stroke="#000000" stroke-miterlimit="10" points="313.251,366.122 313.251,373.455 320.085,373.455 320.085,366.122 "/>
<polyline stroke="#000000" stroke-miterlimit="10" points="290.464,379.001 290.464,386.334 297.296,386.334 297.296,379.001 "/>
<polyline stroke="#000000" stroke-miterlimit="10" points="301.454,379.001 301.454,386.334 308.286,386.334 308.286,379.001 "/>
<polyline stroke="#000000" stroke-miterlimit="10" points="313.179,379.003 313.179,386.336 320.013,386.336 320.013,379.003 "/>
<polyline stroke="#000000" stroke-miterlimit="10" points="117.806,425.377 117.806,432.71 124.639,432.71 124.639,425.377 "/>
<polyline stroke="#000000" stroke-miterlimit="10" points="156.654,403.137 156.654,417.324 170.32,417.324 170.32,403.137 "/>
<path fill="#CB6120" stroke="#000000" stroke-miterlimit="10" d="M139.157,188.437c0,0,12.758,18.685,32.323,18.792
	c0.09,1.119,74.689-100.672,74.689-100.672L218.066,97"/>
<path fill="#444242" stroke="#000000" stroke-miterlimit="10" d="M214.547,117"/>
<path fill="#444242" d="M304.229,97.586c-3.173-2.426-6.555-4.161-9.416-6.707c-1.692-0.126-3.353-0.717-4.577-1.774
	c-2.556-2.2-2.521-5.537-0.238-7.718c0.064-0.186,0.117-0.375,0.165-0.566c-0.439-0.462-0.78-0.979-1.026-1.527
	c-4.508-0.944-6.881-4.188-11.43-5.428c-6.733-1.836-12.797-4.253-19.124-6.896c-5.631-2.351-11.425-6.2-17.597-7.384
	c-6.892-1.322-14.701-0.744-21.223,1.13c-1.773,0.509-3.32,0.414-4.586-0.07c-6.06,1.449-12.022,3.153-17.841,5.082
	c-7.089,2.35-13.286,5.19-19.637,8.287c6.578-1.108,13.816-0.847,20.53-0.543c0.337,0.015,0.655,0.053,0.966,0.097
	c5.808,0.36,11.421,1.305,16.611,4.314c2.893,1.678,3.532,4.16,2.799,6.307c-0.032,0.286-0.089,0.579-0.174,0.879
	c-1.079,3.81-3.68,6.86-6.214,10.015c6.399,3.959,13.331,7.352,20.243,10.62c5.209,2.462,13.836,5.546,18.281,10.069
	c0.139-0.116,0.273-0.238,0.423-0.342c1.045-3.219,2.636-6.152,5.74-8.412c2.857-2.081,6.981-1.653,9.556,0.144
	c4.403,1.126,7.538,4.058,10.597,7.106c3.233,3.22,7.569,5.893,11.842,8.415c0.969-0.396,1.937-0.813,2.87-1.334
	c3.094-1.726,6.389-3.942,8.954-6.171c2.466-2.141,3.753-4.669,4.853-7.443c0.608-1.533,3.026-3.906,2.982-5.6
	C307.306,100.475,305.939,98.895,304.229,97.586z"/>
<path fill="#DB9600" d="M217.029,170.052c3.95,8.562,11.632,15.732,18.29,22.445c6.368,6.423,12.216,13.496,18.833,19.659
	c4.901,4.563,10.113,6.866,15.967,7.761c5.146-4.218,9.563-9.696,7.897-16.395c-1.952-7.846-8.219-14.233-13.509-20.298
	c-11.362-13.025-26.886-23.098-35.761-37.981l-20.862,11.027C212.037,159.894,214.388,164.325,217.029,170.052z"/>
<path fill="#727176" d="M219.685,150.456c-2.197,0.838-0.334-0.05,1.008-0.654c-0.29-0.317-0.559-0.651-0.78-1.014
	c-0.625-0.494-1.156-1.099-1.565-1.766c-0.466-0.368-0.879-0.798-1.232-1.267c-0.442-0.416-0.828-0.89-1.139-1.4
	c-0.463-0.366-0.872-0.794-1.222-1.261c-0.295-0.277-0.564-0.579-0.804-0.901c-0.436-0.414-0.817-0.882-1.125-1.386
	c-0.46-0.366-0.87-0.793-1.219-1.258l-0.002-0.003c-0.348-0.328-0.65-0.697-0.919-1.085c-0.466-0.375-0.881-0.808-1.233-1.281
	c-0.292-0.281-0.563-0.583-0.8-0.908c-0.342-0.33-0.655-0.688-0.919-1.078c-0.26-0.265-0.506-0.543-0.718-0.844
	c-0.513-0.307-0.993-0.671-1.388-1.142c-0.808-0.963-1.643-1.908-2.479-2.849c-0.409-0.46-0.699-0.977-0.93-1.509
	c-0.697-0.519-1.292-1.169-1.736-1.896c-0.464-0.367-0.875-0.796-1.226-1.265c-0.294-0.277-0.563-0.578-0.801-0.899
	c-0.278-0.261-0.521-0.551-0.749-0.853l-0.003-0.004c-0.291-0.271-0.55-0.571-0.786-0.886c-0.3-0.28-0.575-0.587-0.818-0.914
	c-0.292-0.274-0.558-0.574-0.794-0.893c-0.29-0.273-0.555-0.571-0.791-0.888c-0.289-0.273-0.552-0.572-0.789-0.889
	c-0.287-0.273-0.55-0.568-0.785-0.884l-0.001-0.001c-0.288-0.273-0.552-0.571-0.787-0.887c-0.289-0.273-0.552-0.571-0.787-0.888
	c-0.289-0.273-0.552-0.57-0.787-0.886c-0.289-0.274-0.552-0.571-0.787-0.887c-0.433-0.41-0.784-0.886-1.089-1.387
	c-0.515-0.392-0.972-0.853-1.352-1.365c-0.273-0.262-0.521-0.547-0.747-0.847c-0.298-0.279-0.57-0.584-0.813-0.909
	c-0.291-0.275-0.557-0.575-0.794-0.893c-0.29-0.273-0.553-0.572-0.788-0.889c-0.289-0.273-0.552-0.571-0.787-0.887l-0.001,0
	c-0.272-0.257-0.511-0.543-0.733-0.839c-0.312-0.289-0.595-0.604-0.846-0.941c-0.281-0.269-0.542-0.561-0.771-0.87
	c-0.291-0.275-0.558-0.575-0.795-0.894c-0.289-0.273-0.553-0.573-0.789-0.889c-0.289-0.273-0.552-0.57-0.787-0.886
	c-0.274-0.261-0.516-0.549-0.743-0.848c-0.308-0.287-0.589-0.601-0.838-0.936c-0.412-0.391-0.747-0.844-1.042-1.318
	c-0.5-0.387-0.945-0.839-1.317-1.341c-0.299-0.283-0.571-0.594-0.813-0.923c-0.4-0.386-0.725-0.831-1.011-1.296
	c-0.526-0.399-0.995-0.869-1.381-1.394c-0.278-0.27-0.538-0.557-0.763-0.867c-0.286-0.276-0.555-0.567-0.787-0.886
	c-0.255-0.246-0.484-0.518-0.696-0.798c-0.309-0.281-0.579-0.595-0.829-0.923c-0.316-0.293-0.604-0.613-0.857-0.956
	c-0.427-0.407-0.799-0.866-1.102-1.36c-0.746-0.591-1.362-1.336-1.789-2.162c-0.333-0.295-0.624-0.629-0.892-0.979
	c-0.311-0.286-0.593-0.602-0.844-0.937c-0.293-0.277-0.562-0.578-0.799-0.899c-0.29-0.273-0.554-0.571-0.791-0.888
	c-0.289-0.273-0.553-0.572-0.788-0.889c-0.289-0.273-0.552-0.571-0.787-0.887c-0.289-0.273-0.552-0.571-0.787-0.887
	c-0.288-0.273-0.551-0.569-0.785-0.884c-0.003-0.004-0.007-0.009-0.01-0.014c-0.109-0.149-0.214-0.301-0.31-0.458
	c-0.004-0.007-0.008-0.016-0.013-0.023c-0.461-0.366-0.87-0.792-1.22-1.259l-0.005-0.005c-0.291-0.273-0.556-0.573-0.792-0.891
	c-0.279-0.263-0.524-0.555-0.753-0.858c-0.302-0.281-0.577-0.588-0.82-0.916c-0.293-0.275-0.561-0.576-0.797-0.895
	c-0.437-0.413-0.816-0.881-1.125-1.385c-0.461-0.367-0.871-0.793-1.22-1.26c-0.294-0.277-0.564-0.578-0.802-0.9
	c-0.29-0.274-0.555-0.572-0.791-0.889l-0.003-0.004c-0.076-0.071-0.135-0.156-0.206-0.232c-1.409-0.699-2.674-1.536-3.994-2.416
	c-0.618-0.412-1.251-0.863-1.805-1.372c-0.469-0.204-0.911-0.439-1.293-0.705c0.416,0.601,0.7,1.26,0.862,1.973
	c0.786,1.269,1.38,2.584,2.162,3.878c0.256,0.424,0.421,0.874,0.519,1.332l71.138,80.138
	C217.717,151.419,218.645,150.853,219.685,150.456z"/>
<ellipse fill="#70A83B" stroke="#000000" stroke-miterlimit="10" cx="51.417" cy="255.333" rx="7.083" ry="4.75"/>
<ellipse fill="#C64832" stroke="#000000" stroke-miterlimit="10" cx="69.417" cy="255.333" rx="7.583" ry="4.75"/>
</svg>
